<svg aria-hidden="true" style="position: absolute; width: 0; height: 0; overflow: hidden;" version="1.1" xmlns="http://www.w3.org/2000/svg" xmlns:xlink="http://www.w3.org/1999/xlink">
<defs>
<symbol id="fd-back" viewBox="0 0 32 32">
<title>back</title>
<path d="M14.457 31.061c0 0-14.004-14.004-14.004-14.004-0.168-0.169-0.285-0.335-0.353-0.503s-0.101-0.353-0.101-0.554c0-0.202 0.034-0.386 0.101-0.554s0.184-0.335 0.353-0.503c0 0 14.054-14.054 14.054-14.054 0.269-0.269 0.604-0.403 1.008-0.403s0.755 0.151 1.058 0.454c0.303 0.303 0.454 0.655 0.454 1.058s-0.151 0.755-0.454 1.058c0 0-11.435 11.435-11.435 11.435s24.985 0 24.985 0c0.436 0 0.798 0.143 1.083 0.429s0.429 0.647 0.429 1.083c0 0.436-0.143 0.798-0.429 1.083s-0.647 0.429-1.083 0.429c0 0-24.985 0-24.985 0s11.485 11.485 11.485 11.485c0.269 0.269 0.403 0.604 0.403 1.008s-0.151 0.755-0.454 1.058c-0.303 0.303-0.655 0.454-1.058 0.454s-0.755-0.151-1.058-0.454c0 0 0 0 0 0v0z"></path>
</symbol>
<symbol id="fd-grid" viewBox="0 0 32 32">
<title>grid</title>
<path d="M18.667 13.333v5.333h-5.333v-5.333h5.333zM21.333 13.333h6.667v5.333h-6.667v-5.333zM18.667 28h-5.333v-6.667h5.333v6.667zM21.333 28v-6.667h6.667v5.333c0 0.736-0.597 1.333-1.333 1.333h-5.333zM18.667 4v6.667h-5.333v-6.667h5.333zM21.333 4h5.333c0.736 0 1.333 0.597 1.333 1.333v5.333h-6.667v-6.667zM10.667 13.333v5.333h-6.667v-5.333h6.667zM10.667 28h-5.333c-0.736 0-1.333-0.597-1.333-1.333v-5.333h6.667v6.667zM10.667 4v6.667h-6.667v-5.333c0-0.736 0.597-1.333 1.333-1.333h5.333z"></path>
</symbol>
<symbol id="fd-info" viewBox="0 0 32 32">
<title>info</title>
<path d="M14.864 5.832c0.097-0.164 0.247-0.323 0.445-0.443 0.315-0.191 0.675-0.237 1.008-0.155s0.632 0.288 0.819 0.597l11.288 18.844c0.093 0.16 0.159 0.357 0.171 0.579-0.020 0.491-0.159 0.788-0.377 1.012-0.24 0.245-0.569 0.397-0.924 0.401l-22.583-0.001c-0.203-0.001-0.428-0.055-0.641-0.179-0.319-0.184-0.532-0.479-0.621-0.809s-0.051-0.692 0.123-0.993zM12.576 4.461l-11.293 18.853c-0.563 0.975-0.675 2.067-0.411 3.053s0.907 1.877 1.864 2.429c0.619 0.357 1.301 0.533 1.967 0.536h22.591c1.119-0.012 2.116-0.472 2.831-1.203s1.152-1.737 1.14-2.841c-0.008-0.715-0.204-1.392-0.541-1.965l-11.299-18.863c-0.576-0.951-1.48-1.575-2.472-1.817s-2.081-0.108-3.025 0.465c-0.572 0.347-1.033 0.82-1.349 1.352zM14.667 12v5.333c0 0.736 0.597 1.333 1.333 1.333s1.333-0.597 1.333-1.333v-5.333c0-0.736-0.597-1.333-1.333-1.333s-1.333 0.597-1.333 1.333zM16 24c0.736 0 1.333-0.597 1.333-1.333s-0.597-1.333-1.333-1.333-1.333 0.597-1.333 1.333 0.597 1.333 1.333 1.333z"></path>
</symbol>
<symbol id="fd-list" viewBox="0 0 32 32">
<title>list</title>
<path d="M4 17.333h24c0.736 0 1.333-0.597 1.333-1.333s-0.597-1.333-1.333-1.333h-24c-0.736 0-1.333 0.597-1.333 1.333s0.597 1.333 1.333 1.333zM4 9.333h24c0.736 0 1.333-0.597 1.333-1.333s-0.597-1.333-1.333-1.333h-24c-0.736 0-1.333 0.597-1.333 1.333s0.597 1.333 1.333 1.333zM4 25.333h24c0.736 0 1.333-0.597 1.333-1.333s-0.597-1.333-1.333-1.333h-24c-0.736 0-1.333 0.597-1.333 1.333s0.597 1.333 1.333 1.333z"></path>
</symbol>
<symbol id="fd-send" viewBox="0 0 32 32">
<title>send</title>
<path d="M30.617 3.025c0.057-0.201 0.067-0.419 0.020-0.635-0.032-0.151-0.091-0.299-0.175-0.433-0.085-0.136-0.193-0.253-0.317-0.349-0.156-0.12-0.332-0.2-0.515-0.241s-0.376-0.045-0.568-0.005c-0.056 0.012-0.113 0.028-0.168 0.047l-0.028 0.009-26.64 9.324c-0.336 0.117-0.623 0.368-0.779 0.717-0.299 0.673 0.004 1.461 0.677 1.76l11.532 5.125 5.125 11.532c0.144 0.324 0.417 0.591 0.777 0.717 0.695 0.243 1.456-0.123 1.699-0.819l9.324-26.639c0.013-0.036 0.025-0.072 0.036-0.109zM14.372 15.743l-8.091-3.595 17.977-6.293zM26.145 7.741l-6.293 17.977-3.595-8.091z"></path>
</symbol>
<symbol id="fd-tours" viewBox="0 0 32 32">
<title>tours</title>
<path d="M30.667 16c0-4.049-1.643-7.719-4.296-10.371s-6.321-4.296-10.371-4.296-7.719 1.643-10.371 4.296-4.296 6.321-4.296 10.371 1.643 7.719 4.296 10.371 6.321 4.296 10.371 4.296 7.719-1.643 10.371-4.296 4.296-6.321 4.296-10.371zM28 16c0 3.315-1.341 6.312-3.515 8.485s-5.171 3.515-8.485 3.515-6.312-1.341-8.485-3.515-3.515-5.171-3.515-8.485 1.341-6.312 3.515-8.485 5.171-3.515 8.485-3.515 6.312 1.341 8.485 3.515 3.515 5.171 3.515 8.485zM22.919 10.768c0.088-0.261 0.096-0.557 0-0.843-0.233-0.699-0.988-1.076-1.687-0.843l-8.48 2.827c-0.387 0.131-0.705 0.431-0.843 0.843l-2.827 8.48c-0.088 0.261-0.096 0.557 0 0.843 0.233 0.699 0.988 1.076 1.687 0.843l8.48-2.827c0.387-0.131 0.705-0.431 0.843-0.843zM19.545 12.455l-1.773 5.317-5.317 1.773 1.772-5.317z"></path>
</symbol>
<symbol id="fd-detail" viewBox="0 0 32 32">
<title>detail</title>
<path d="M16 4.157l10.352 5.176-10.352 5.176-10.352-5.176zM15.404 1.475l-13.333 6.667c-0.659 0.329-0.925 1.129-0.596 1.788 0.135 0.271 0.348 0.475 0.596 0.596l13.333 6.667c0.389 0.195 0.827 0.181 1.192 0l13.333-6.667c0.659-0.329 0.925-1.131 0.596-1.789-0.135-0.269-0.349-0.473-0.596-0.596l-13.333-6.667c-0.389-0.195-0.827-0.181-1.192 0zM2.071 23.859l13.333 6.667c0.389 0.195 0.827 0.181 1.192 0l13.333-6.667c0.659-0.329 0.925-1.131 0.596-1.789s-1.131-0.925-1.789-0.596l-12.736 6.369-12.737-6.368c-0.659-0.329-1.46-0.063-1.789 0.596s-0.063 1.46 0.596 1.789zM2.071 17.192l13.333 6.667c0.389 0.195 0.827 0.181 1.192 0l13.333-6.667c0.659-0.329 0.925-1.131 0.596-1.789s-1.131-0.925-1.789-0.596l-12.736 6.369-12.737-6.368c-0.659-0.329-1.46-0.063-1.789 0.596s-0.063 1.46 0.596 1.789z"></path>
</symbol>
<symbol id="fd-settings" viewBox="0 0 32 32">
<title>settings</title>
<path d="M21.333 16c0-1.472-0.599-2.808-1.563-3.771s-2.299-1.563-3.771-1.563-2.808 0.599-3.771 1.563-1.563 2.299-1.563 3.771 0.599 2.808 1.563 3.771 2.299 1.563 3.771 1.563 2.808-0.599 3.771-1.563 1.563-2.299 1.563-3.771zM18.667 16c0 0.737-0.297 1.401-0.781 1.885s-1.148 0.781-1.885 0.781-1.401-0.297-1.885-0.781-0.781-1.148-0.781-1.885 0.297-1.401 0.781-1.885 1.148-0.781 1.885-0.781 1.401 0.297 1.885 0.781 0.781 1.148 0.781 1.885zM27.087 20.539c0.061-0.14 0.149-0.255 0.256-0.343 0.149-0.123 0.335-0.195 0.537-0.196h0.12c1.104 0 2.107-0.449 2.828-1.172s1.172-1.724 1.172-2.828-0.449-2.107-1.172-2.828-1.724-1.172-2.828-1.172h-0.212c-0.147-0.001-0.287-0.037-0.411-0.101-0.169-0.088-0.307-0.229-0.389-0.416-0.004-0.039-0.005-0.079-0.005-0.119-0.032-0.073-0.053-0.148-0.065-0.224 0.027-0.445 0.103-0.605 0.224-0.729l0.083-0.083c0.78-0.781 1.171-1.808 1.169-2.829s-0.392-2.048-1.175-2.829c-0.781-0.78-1.808-1.171-2.829-1.169s-2.048 0.392-2.827 1.172l-0.061 0.061c-0.111 0.107-0.244 0.181-0.384 0.221-0.187 0.052-0.388 0.043-0.584-0.044-0.135-0.059-0.249-0.147-0.337-0.253-0.123-0.149-0.195-0.335-0.196-0.537v-0.12c0-1.104-0.449-2.107-1.172-2.828s-1.724-1.172-2.828-1.172-2.107 0.449-2.828 1.172-1.172 1.724-1.172 2.828v0.212c-0.001 0.147-0.037 0.287-0.101 0.411-0.088 0.169-0.229 0.307-0.416 0.389-0.039 0.004-0.079 0.005-0.119 0.005-0.073 0.032-0.148 0.053-0.224 0.065-0.447-0.028-0.607-0.104-0.731-0.225l-0.083-0.083c-0.781-0.78-1.807-1.171-2.829-1.171s-2.047 0.392-2.829 1.176c-0.78 0.781-1.171 1.807-1.171 2.829s0.392 2.048 1.172 2.827l0.064 0.063c0.107 0.111 0.181 0.244 0.221 0.384 0.052 0.187 0.043 0.388-0.041 0.579-0.008 0.021-0.017 0.045-0.028 0.069-0.055 0.145-0.144 0.271-0.255 0.367-0.147 0.127-0.333 0.204-0.511 0.208h-0.12c-1.104 0-2.107 0.449-2.828 1.172s-1.172 1.725-1.172 2.829 0.449 2.107 1.172 2.828 1.724 1.172 2.828 1.172h0.212c0.147 0.001 0.287 0.037 0.411 0.101 0.171 0.089 0.311 0.232 0.395 0.428 0.032 0.073 0.053 0.148 0.065 0.224-0.027 0.445-0.103 0.605-0.224 0.729l-0.083 0.083c-0.78 0.781-1.171 1.808-1.169 2.829s0.392 2.048 1.175 2.829c0.781 0.78 1.808 1.171 2.829 1.169s2.048-0.392 2.827-1.172l0.063-0.064c0.111-0.107 0.244-0.181 0.384-0.221 0.187-0.052 0.388-0.043 0.579 0.041 0.021 0.008 0.045 0.017 0.069 0.028 0.145 0.055 0.271 0.144 0.367 0.255 0.127 0.147 0.204 0.333 0.208 0.511v0.123c0 1.104 0.449 2.107 1.172 2.828s1.724 1.172 2.828 1.172 2.107-0.449 2.828-1.172 1.172-1.724 1.172-2.828v-0.212c0.001-0.147 0.037-0.287 0.101-0.411 0.089-0.171 0.232-0.311 0.428-0.395 0.073-0.032 0.148-0.053 0.224-0.065 0.445 0.027 0.605 0.103 0.729 0.224l0.083 0.083c0.781 0.78 1.808 1.171 2.829 1.169s2.048-0.392 2.829-1.175c0.78-0.781 1.171-1.808 1.169-2.829s-0.392-2.048-1.172-2.827l-0.064-0.063c-0.107-0.111-0.181-0.244-0.221-0.384-0.052-0.187-0.043-0.388 0.041-0.579zM24.528 12.403c-0.016-0.268-0.051-0.396-0.101-0.509v0.107c0 0.057 0.004 0.112 0.011 0.167 0.028 0.080 0.057 0.159 0.091 0.236 0.005 0.12 0.007 0.121 0.007 0.123 0.332 0.775 0.912 1.373 1.611 1.737 0.495 0.257 1.047 0.397 1.615 0.404h0.24c0.368 0 0.7 0.148 0.943 0.391s0.391 0.575 0.391 0.943-0.148 0.7-0.391 0.943-0.575 0.391-0.943 0.391h-0.12c-0.849 0.004-1.627 0.304-2.233 0.804-0.431 0.355-0.775 0.809-1 1.324-0.343 0.776-0.384 1.613-0.169 2.376 0.159 0.564 0.455 1.085 0.869 1.515l0.096 0.097c0.261 0.261 0.392 0.6 0.392 0.943s-0.129 0.683-0.389 0.943c-0.263 0.263-0.601 0.393-0.945 0.393s-0.683-0.129-0.943-0.389l-0.081-0.081c-0.617-0.604-1.387-0.936-2.176-1.003-0.583-0.049-1.176 0.045-1.724 0.283-0.771 0.331-1.369 0.911-1.733 1.608-0.257 0.495-0.397 1.047-0.404 1.615v0.241c0 0.368-0.148 0.7-0.391 0.943s-0.573 0.389-0.941 0.389-0.7-0.148-0.943-0.391-0.391-0.575-0.391-0.943v-0.12c-0.020-0.88-0.34-1.656-0.859-2.256-0.379-0.437-0.861-0.78-1.411-0.992-0.767-0.329-1.591-0.365-2.341-0.155-0.564 0.159-1.085 0.455-1.515 0.869l-0.097 0.096c-0.261 0.261-0.6 0.392-0.943 0.392s-0.683-0.129-0.943-0.389c-0.263-0.263-0.393-0.601-0.393-0.945s0.129-0.683 0.389-0.943l0.081-0.081c0.604-0.617 0.936-1.387 1.003-2.176 0.049-0.583-0.045-1.176-0.283-1.724-0.331-0.771-0.911-1.369-1.608-1.733-0.495-0.257-1.047-0.397-1.615-0.404l-0.24 0.001c-0.368 0-0.7-0.148-0.943-0.391s-0.391-0.575-0.391-0.943 0.148-0.7 0.391-0.943 0.575-0.391 0.943-0.391h0.12c0.88-0.020 1.656-0.34 2.256-0.859 0.437-0.379 0.78-0.861 0.992-1.411 0.329-0.767 0.365-1.591 0.155-2.341-0.159-0.564-0.455-1.085-0.869-1.515l-0.097-0.097c-0.261-0.261-0.392-0.6-0.392-0.943s0.129-0.683 0.389-0.943c0.263-0.263 0.601-0.393 0.945-0.393s0.683 0.129 0.943 0.389l0.081 0.081c0.617 0.604 1.387 0.936 2.176 1.003 0.493 0.043 0.993-0.019 1.468-0.183 0.128-0.016 0.248-0.048 0.355-0.096-0.041 0.001-0.081 0.004-0.119 0.005-0.268 0.016-0.396 0.051-0.509 0.101h0.107c0.057 0 0.112-0.004 0.167-0.011 0.080-0.028 0.159-0.057 0.236-0.091 0.12-0.005 0.121-0.007 0.123-0.007 0.775-0.332 1.373-0.912 1.737-1.611 0.257-0.493 0.397-1.047 0.404-1.613v-0.241c0-0.368 0.148-0.7 0.391-0.943s0.575-0.391 0.943-0.391 0.7 0.148 0.943 0.391 0.391 0.575 0.391 0.943v0.12c0.004 0.849 0.304 1.627 0.804 2.233 0.355 0.431 0.809 0.775 1.328 1.001 0.771 0.34 1.608 0.381 2.371 0.167 0.564-0.159 1.085-0.455 1.515-0.869l0.097-0.096c0.261-0.261 0.6-0.392 0.943-0.392s0.683 0.129 0.943 0.389c0.263 0.263 0.393 0.601 0.393 0.945s-0.129 0.683-0.389 0.943l-0.081 0.081c-0.604 0.617-0.936 1.387-1.003 2.176-0.043 0.493 0.019 0.993 0.183 1.468 0.016 0.127 0.049 0.247 0.096 0.355-0.001-0.043-0.003-0.083-0.005-0.119z"></path>
</symbol>
<symbol id="fd-error" viewBox="0 0 32 32">
<title>error</title>
<path d="M30.667 16c0-4.049-1.643-7.719-4.296-10.371s-6.321-4.296-10.371-4.296-7.719 1.643-10.371 4.296-4.296 6.321-4.296 10.371 1.643 7.719 4.296 10.371 6.321 4.296 10.371 4.296 7.719-1.643 10.371-4.296 4.296-6.321 4.296-10.371zM28 16c0 3.315-1.341 6.312-3.515 8.485s-5.171 3.515-8.485 3.515-6.312-1.341-8.485-3.515-3.515-5.171-3.515-8.485 1.341-6.312 3.515-8.485 5.171-3.515 8.485-3.515 6.312 1.341 8.485 3.515 3.515 5.171 3.515 8.485zM14.667 10.667v5.333c0 0.736 0.597 1.333 1.333 1.333s1.333-0.597 1.333-1.333v-5.333c0-0.736-0.597-1.333-1.333-1.333s-1.333 0.597-1.333 1.333zM16 22.667c0.736 0 1.333-0.597 1.333-1.333s-0.597-1.333-1.333-1.333-1.333 0.597-1.333 1.333 0.597 1.333 1.333 1.333z"></path>
</symbol>
<symbol id="fd-close" viewBox="0 0 32 32">
<title>close</title>
<path d="M16 14.115l6.6-6.6 1.886 1.886-6.6 6.6 6.6 6.6-1.886 1.886-6.6-6.6-6.6 6.6-1.886-1.886 6.6-6.6-6.6-6.6 1.886-1.886 6.6 6.6z"></path>
</symbol>
<symbol id="fd-reload" viewBox="0 0 32 32">
<title>reload</title>
<path d="M7.283 5.91c2.337-2.021 5.384-3.244 8.717-3.244 7.364 0 13.333 5.97 13.333 13.333 0 2.848-0.893 5.488-2.414 7.654l-4.252-7.654h4c0-5.891-4.776-10.667-10.667-10.667-2.867 0-5.47 1.131-7.386 2.971l-1.33-2.394zM24.717 26.090c-2.337 2.021-5.384 3.243-8.717 3.243-7.364 0-13.333-5.97-13.333-13.333 0-2.848 0.893-5.488 2.414-7.654l4.252 7.654h-4c0 5.891 4.776 10.667 10.667 10.667 2.867 0 5.47-1.131 7.386-2.971l1.33 2.394z"></path>
</symbol>
<symbol id="fd-start" viewBox="0 0 32 32">
<title>start</title>
<path d="M28 26.667c0 0.736-0.597 1.333-1.333 1.333h-21.333c-0.736 0-1.333-0.597-1.333-1.333v-14.015c0-0.411 0.19-0.8 0.515-1.052l10.667-8.296c0.481-0.374 1.156-0.374 1.637 0l10.667 8.296c0.325 0.253 0.515 0.641 0.515 1.052v14.015zM25.333 25.333v-12.029l-9.333-7.259-9.333 7.259v12.029h18.667z"></path>
</symbol>
<symbol id="fd-edit" viewBox="0 0 32 32">
<title>edit</title>
<path d="M20.971 12.768l-1.886-1.886-12.418 12.418v1.886h1.886l12.418-12.418zM22.856 10.883l1.886-1.886-1.886-1.886-1.886 1.886 1.886 1.886zM9.657 27.853h-5.657v-5.657l17.913-17.913c0.521-0.521 1.365-0.521 1.886 0l3.771 3.771c0.521 0.521 0.521 1.365 0 1.886l-17.913 17.913z"></path>
</symbol>
</defs>
</svg>
